<?xml version="1.0" standalone="no"?>
<!DOCTYPE svg PUBLIC "-//W3C//DTD SVG 20010904//EN"
 "http://www.w3.org/TR/2001/REC-SVG-20010904/DTD/svg10.dtd">
<svg version="1.0" xmlns="http://www.w3.org/2000/svg"
 width="2000.000000pt" height="2000.000000pt" viewBox="0 0 2000.000000 2000.000000"
 preserveAspectRatio="xMidYMid meet">
<metadata>
Created by potrace 1.11, written by Peter Selinger 2001-2013
</metadata>
<g transform="translate(0.000000,2000.000000) scale(0.100000,-0.100000)"
fill="#000000" stroke="none">
<path d="M12811 13698 c0 -10 -7 -18 -15 -18 -8 0 -16 -7 -20 -15 -3 -8 -17
-15 -31 -15 -14 0 -25 -4 -25 -10 0 -5 -9 -10 -20 -10 -12 0 -31 -11 -44 -25
-13 -14 -30 -25 -39 -25 -8 0 -17 -5 -19 -10 -2 -6 -13 -12 -25 -13 -18 -1
-20 -4 -10 -16 9 -12 9 -13 -1 -7 -7 4 -15 1 -18 -8 -3 -9 -15 -16 -25 -16
-12 0 -19 -7 -19 -20 0 -13 -7 -20 -20 -20 -11 0 -20 -4 -20 -10 0 -5 -11 -10
-25 -10 -17 0 -23 -4 -19 -14 4 -10 -6 -16 -34 -21 -28 -4 -42 -12 -45 -26 -3
-10 -12 -19 -21 -19 -9 0 -16 -7 -16 -15 0 -9 -9 -15 -25 -15 -16 0 -25 -6
-25 -15 0 -8 -9 -15 -20 -15 -11 0 -20 -4 -20 -8 0 -5 -18 -16 -40 -26 -22
-10 -40 -24 -40 -32 0 -8 -10 -14 -25 -14 -14 0 -25 -4 -25 -10 0 -5 -18 -14
-40 -20 -24 -6 -40 -17 -40 -25 0 -8 -4 -15 -10 -15 -25 0 -7 -30 25 -41 19
-7 35 -17 35 -21 0 -4 7 -8 15 -8 8 0 15 -7 15 -15 0 -9 9 -15 25 -15 14 0 28
-7 31 -15 4 -8 17 -15 30 -15 21 0 29 -9 25 -32 0 -4 15 -12 34 -19 19 -7 32
-16 29 -21 -3 -4 4 -8 16 -8 26 0 62 -18 56 -28 -5 -8 14 -26 29 -28 28 -3 55
-18 55 -30 0 -9 12 -14 35 -14 28 0 35 -4 35 -20 0 -11 5 -20 10 -20 6 0 10
-7 10 -15 0 -8 9 -15 20 -15 11 0 24 -8 28 -17 4 -10 13 -19 20 -21 25 -5 57
-11 65 -11 4 -1 7 -8 7 -16 0 -9 9 -15 25 -15 16 0 25 -6 25 -15 0 -8 7 -15
15 -15 8 0 15 -9 15 -20 0 -16 7 -20 30 -20 19 0 30 -5 30 -14 0 -7 8 -16 18
-20 9 -3 24 -9 32 -14 40 -23 61 -32 80 -32 11 0 20 -7 20 -15 0 -8 7 -15 15
-15 8 0 15 -4 15 -10 0 -5 9 -10 19 -10 17 0 36 -24 33 -41 -2 -9 47 -21 57
-14 5 2 11 -4 14 -15 3 -14 14 -20 31 -20 14 0 26 -5 26 -11 0 -21 27 -37 83
-49 42 -10 57 -18 57 -30 0 -22 17 -36 53 -45 19 -5 27 -14 27 -29 0 -17 2
-18 10 -6 7 11 10 11 10 2 0 -7 4 -11 9 -7 5 3 16 -2 24 -10 9 -8 22 -15 31
-15 8 0 19 -7 24 -17 5 -9 20 -17 33 -18 16 -1 25 -9 27 -23 3 -17 12 -23 43
-28 21 -4 36 -10 33 -15 -3 -5 2 -9 10 -9 9 0 16 -7 16 -15 0 -8 9 -15 20 -15
11 0 20 -4 20 -10 0 -5 11 -10 25 -10 16 0 25 -6 25 -15 0 -10 10 -15 30 -15
20 0 30 -5 30 -15 0 -8 4 -15 9 -15 5 0 11 -9 14 -21 3 -11 11 -19 19 -18 27
3 37 -1 32 -14 -3 -10 4 -14 25 -15 35 -1 54 -10 46 -22 -8 -13 24 -40 46 -40
11 0 18 -4 15 -8 -2 -4 5 -9 17 -9 12 -1 23 -7 25 -13 2 -5 10 -10 18 -10 8 0
14 -4 14 -10 0 -5 5 -10 10 -10 6 0 21 -11 34 -25 13 -14 30 -25 38 -25 8 0
18 -3 22 -7 3 -4 14 -8 24 -9 9 -2 18 -8 20 -13 2 -6 10 -11 17 -11 7 0 15 -9
18 -20 3 -11 14 -20 24 -20 10 0 25 -9 33 -20 8 -11 20 -20 27 -20 7 0 13 -6
13 -14 0 -8 16 -16 39 -20 21 -3 41 -12 44 -20 3 -8 16 -16 29 -18 13 -2 22
-9 20 -17 -1 -7 7 -15 18 -18 11 -3 20 -9 20 -13 0 -5 22 -11 49 -15 43 -6 49
-10 54 -35 5 -24 12 -29 47 -35 22 -4 43 -13 47 -20 5 -7 17 -15 28 -17 11 -2
19 -10 17 -16 -1 -7 2 -12 8 -12 5 0 20 -11 34 -25 14 -14 29 -25 33 -24 4 1
20 1 36 0 20 -1 27 -6 27 -21 0 -13 7 -20 20 -20 11 0 20 -7 20 -15 0 -10 11
-15 33 -16 17 0 26 -3 19 -6 -17 -7 -5 -23 19 -23 10 0 19 -4 19 -10 0 -5 9
-10 20 -10 13 0 24 -10 30 -25 7 -17 15 -23 30 -20 13 3 23 -2 27 -13 10 -25
35 -41 66 -42 17 0 27 -5 27 -15 0 -8 6 -15 13 -15 8 0 22 -9 32 -20 10 -11
26 -20 36 -20 9 0 19 -5 21 -11 2 -5 12 -11 21 -13 10 -1 22 -7 25 -13 4 -6
17 -13 30 -17 12 -4 22 -14 22 -22 0 -8 5 -12 10 -9 6 3 13 -1 16 -9 3 -9 13
-16 21 -16 8 0 21 -7 29 -15 9 -8 24 -15 34 -15 13 0 17 -5 13 -19 -4 -15 2
-21 29 -27 18 -4 36 -9 41 -10 4 -1 13 -2 20 -3 21 -2 57 -36 57 -54 0 -10 12
-18 34 -23 19 -3 37 -12 40 -20 3 -8 14 -14 25 -14 10 0 21 -9 24 -20 3 -12
14 -20 25 -20 12 0 24 -4 27 -10 3 -5 17 -10 31 -10 15 0 24 -6 24 -15 0 -9 9
-15 25 -15 14 0 25 -6 25 -12 0 -7 18 -22 40 -32 22 -11 40 -25 40 -33 0 -7
11 -13 25 -13 16 0 25 -6 25 -15 0 -8 6 -15 14 -15 7 0 19 -7 26 -15 7 -8 28
-15 46 -15 28 0 34 -4 34 -21 0 -25 22 -49 46 -49 9 0 24 -8 33 -19 9 -10 31
-22 49 -25 22 -5 32 -13 32 -27 0 -14 7 -19 30 -19 17 0 30 -4 30 -9 0 -5 16
-12 35 -15 24 -5 33 -11 28 -21 -3 -10 2 -15 16 -15 12 0 21 6 21 15 0 9 12
18 30 22 17 3 30 9 30 14 0 5 14 9 30 9 24 0 30 4 28 18 -2 12 7 20 30 27 17
5 32 13 32 17 0 4 5 8 10 8 6 0 22 11 36 25 14 14 36 25 49 25 18 0 25 5 25
20 0 13 7 20 20 20 11 0 20 5 20 10 0 6 9 10 19 10 30 0 51 11 51 26 0 8 7 14
16 14 10 0 14 6 11 14 -4 9 4 16 24 20 17 3 37 13 45 21 9 8 21 12 27 8 7 -4
6 1 -2 11 -8 9 -10 16 -5 15 27 -5 54 3 54 16 0 8 16 19 40 25 28 8 40 16 40
29 0 14 10 20 40 25 22 3 40 10 40 16 0 5 16 12 36 16 22 4 33 11 30 19 -2 7
0 17 6 23 18 18 1 39 -36 46 -26 5 -36 12 -36 26 0 14 -10 21 -37 26 -21 4
-45 15 -54 26 -9 10 -21 18 -27 18 -6 0 -9 6 -6 14 4 10 -6 16 -35 21 -26 4
-41 12 -41 21 0 9 -4 13 -9 9 -5 -3 -16 2 -24 10 -9 8 -20 15 -26 15 -6 0 -11
5 -11 10 0 6 -7 10 -15 10 -8 0 -15 5 -15 10 0 6 -7 10 -15 10 -8 0 -15 7 -15
15 0 10 -10 15 -31 15 -30 0 -59 19 -59 39 0 5 -16 13 -35 17 -20 3 -35 12
-35 20 0 7 -11 16 -25 20 -14 3 -22 10 -19 15 3 5 -2 9 -10 9 -9 0 -16 6 -16
14 0 9 -12 16 -32 18 -18 2 -31 7 -28 12 3 5 -6 13 -19 17 -15 6 -21 14 -17
24 4 12 -3 15 -36 15 -23 0 -39 3 -35 6 8 9 -14 30 -41 38 -12 4 -20 12 -16
17 3 6 -3 13 -15 16 -12 3 -21 9 -21 13 0 4 -20 14 -45 21 -25 7 -45 17 -45
21 0 4 -9 8 -20 8 -13 0 -20 7 -20 19 0 12 -9 21 -25 25 -14 4 -25 11 -25 16
0 6 -12 10 -26 10 -17 0 -28 6 -31 19 -3 12 -17 23 -34 26 -16 4 -29 10 -29
15 0 5 -9 12 -20 15 -11 3 -20 13 -20 21 0 9 -11 14 -29 14 -21 0 -32 6 -36
20 -4 12 -19 22 -40 26 -23 4 -35 13 -39 28 -4 17 -18 26 -56 36 -27 7 -50 17
-50 22 0 4 -9 8 -20 8 -11 0 -20 7 -20 15 0 9 -9 15 -24 15 -16 0 -27 7 -31
20 -3 11 -15 20 -26 20 -10 0 -19 5 -19 10 0 6 -9 10 -19 10 -10 0 -21 7 -25
15 -3 8 -12 15 -21 15 -8 0 -15 7 -15 15 0 9 -9 15 -25 15 -15 0 -25 6 -25 15
0 8 -14 17 -35 21 -20 3 -35 12 -35 20 0 8 -4 14 -10 14 -5 0 -10 7 -10 15 0
10 -11 15 -35 15 -24 0 -35 5 -35 15 0 8 -7 15 -15 15 -8 0 -15 5 -15 10 0 6
-11 10 -25 10 -16 0 -25 6 -25 15 0 9 -9 15 -22 15 -17 0 -19 3 -10 9 9 5 1
10 -26 15 -32 5 -41 11 -44 28 -2 13 -11 24 -22 26 -11 3 -26 10 -34 18 -7 8
-22 14 -33 14 -10 0 -19 5 -19 11 0 5 -5 7 -10 4 -6 -3 -13 1 -16 9 -3 9 -14
16 -24 16 -10 0 -20 7 -24 15 -3 8 -15 15 -26 15 -15 0 -22 8 -26 30 -5 25
-11 30 -35 30 -16 0 -37 8 -47 18 -10 9 -25 18 -33 20 -8 2 -17 9 -21 17 -4 7
-24 16 -43 19 -19 4 -35 11 -35 15 0 5 -11 12 -24 15 -14 3 -26 16 -30 31 -4
16 -13 25 -26 25 -11 0 -20 5 -20 10 0 6 -7 10 -15 10 -8 0 -15 7 -15 15 0 10
-10 15 -30 15 -16 0 -30 5 -30 10 0 6 -11 10 -24 10 -13 0 -26 7 -30 15 -3 8
-17 15 -31 15 -16 0 -25 6 -25 15 0 8 -9 15 -20 15 -13 0 -20 7 -20 20 0 13
-7 20 -20 20 -11 0 -20 7 -20 15 0 9 -9 15 -25 15 -15 0 -25 6 -25 14 0 9 -15
17 -39 21 -27 4 -41 13 -44 26 -3 11 -14 19 -26 19 -12 0 -21 4 -21 9 0 5 -11
12 -24 15 -18 4 -23 11 -19 26 5 18 0 20 -36 20 -31 0 -41 4 -41 16 0 9 -9 18
-20 21 -11 3 -20 9 -20 14 0 5 -9 9 -20 9 -11 0 -20 6 -20 14 0 15 -21 26 -51
26 -10 0 -19 4 -19 9 0 5 -13 14 -30 20 -20 7 -30 17 -30 30 0 14 -6 21 -20
21 -11 0 -20 4 -20 10 0 5 -16 12 -35 16 -19 3 -35 11 -35 16 0 20 -43 48 -82
54 -21 4 -38 12 -38 19 0 7 -7 15 -15 19 -8 3 -14 11 -13 18 2 8 -9 14 -25 16
-16 2 -31 10 -34 18 -3 8 -14 14 -24 14 -10 0 -19 7 -19 15 0 8 -9 15 -20 15
-11 0 -20 4 -20 9 0 5 -11 12 -25 15 -14 4 -25 11 -25 16 0 6 -13 10 -30 10
-22 0 -28 4 -24 15 5 11 -1 15 -25 15 -20 0 -31 5 -31 14 0 8 -7 16 -15 20 -8
3 -15 12 -15 21 0 8 -5 15 -11 15 -5 0 -7 -4 -4 -10 10 -16 -4 -11 -23 8 -10
10 -16 24 -14 30 2 7 -5 12 -17 12 -11 0 -23 5 -26 10 -3 6 -21 10 -38 10 -21
0 -38 7 -47 20 -8 11 -25 20 -37 20 -16 0 -25 8 -29 25 -4 16 -13 25 -25 25
-10 0 -19 4 -19 9 0 5 -9 11 -20 14 -12 3 -20 14 -20 26 0 17 -6 21 -34 21
-19 0 -36 4 -38 10 -1 5 -14 11 -27 13 -14 2 -27 9 -29 15 -2 7 -14 12 -27 12
-14 0 -25 7 -28 18 -4 16 -5 16 -6 0z"/>
<path d="M10120 10021 l0 -1941 36 0 c20 0 33 -4 29 -10 -3 -5 0 -7 8 -4 8 3
17 -2 20 -10 4 -9 13 -16 22 -16 8 0 15 -6 15 -14 0 -8 9 -18 20 -21 11 -3 20
-10 20 -15 0 -4 18 -11 40 -15 22 -4 38 -11 34 -16 -3 -5 -10 -7 -15 -4 -5 3
-6 -1 -2 -10 4 -12 8 -13 13 -5 5 9 9 9 14 1 4 -6 18 -11 32 -11 15 0 24 -6
24 -15 0 -8 3 -15 8 -16 29 -3 47 -9 50 -18 2 -6 12 -11 23 -11 10 0 19 -7 19
-15 0 -8 11 -17 25 -21 14 -3 25 -9 25 -13 0 -11 47 -31 70 -31 13 0 20 -7 20
-20 0 -13 7 -20 20 -20 11 0 20 -4 20 -9 0 -5 9 -13 20 -16 11 -3 20 -13 20
-21 0 -8 9 -14 20 -14 11 0 20 -7 20 -15 0 -8 9 -15 19 -15 30 0 51 -11 51
-26 0 -8 9 -14 20 -14 11 0 20 -7 20 -15 0 -13 55 -35 88 -35 6 0 12 -4 12
-10 0 -5 7 -10 15 -10 8 0 15 -5 15 -11 0 -13 25 -39 39 -39 5 0 14 -6 18 -14
4 -8 24 -16 43 -18 21 -2 34 -8 33 -15 -2 -7 2 -13 7 -13 6 0 10 -7 10 -15 0
-8 9 -15 19 -15 11 0 23 -5 26 -10 4 -6 11 -8 16 -5 5 4 9 -1 9 -10 0 -9 12
-18 30 -21 17 -4 30 -13 30 -20 0 -8 9 -14 21 -14 11 0 17 -4 14 -10 -4 -6 7
-10 24 -10 17 0 31 -4 31 -10 0 -5 6 -10 14 -10 8 0 18 -9 21 -20 4 -13 15
-20 31 -20 15 0 24 -6 24 -15 0 -8 18 -23 40 -32 25 -11 40 -24 40 -35 0 -13
8 -18 25 -18 14 0 25 -4 25 -10 0 -5 11 -10 24 -10 14 0 31 -7 40 -15 8 -8 19
-15 25 -15 6 0 11 -7 11 -15 0 -8 7 -15 15 -15 8 0 15 -4 15 -10 0 -5 12 -10
26 -10 17 0 28 -6 31 -20 4 -15 14 -20 40 -20 26 0 33 -4 31 -16 -2 -10 11
-21 37 -32 22 -9 50 -25 62 -37 40 -37 51 -44 77 -51 14 -3 26 -12 26 -20 0
-8 10 -14 23 -14 13 0 32 -7 43 -16 10 -8 12 -12 4 -8 -10 4 -12 4 -5 -3 6 -5
29 -16 53 -23 29 -9 44 -20 48 -36 4 -16 15 -23 45 -28 21 -3 38 -10 37 -14
-4 -21 18 -41 53 -47 21 -4 39 -11 39 -16 0 -5 7 -9 15 -9 20 0 65 -45 65 -65
0 -8 9 -15 20 -15 11 0 20 -4 20 -10 0 -5 14 -10 30 -10 20 0 30 -5 30 -15 0
-8 9 -15 20 -15 13 0 20 -7 20 -20 0 -15 7 -20 25 -20 15 0 25 -6 25 -14 0 -9
16 -18 43 -23 33 -7 43 -13 45 -31 3 -16 10 -22 29 -22 18 0 24 -4 19 -15 -4
-11 1 -15 19 -15 14 0 25 -4 25 -10 0 -5 17 -10 39 -10 34 0 39 -3 44 -29 5
-23 13 -30 43 -35 20 -4 34 -10 30 -13 -7 -7 19 -33 34 -33 6 0 18 -7 27 -16
9 -8 21 -13 28 -10 7 2 21 -6 31 -20 11 -13 29 -24 41 -24 13 0 22 -5 20 -12
-1 -6 14 -16 33 -22 19 -5 42 -18 51 -28 9 -10 21 -18 28 -18 6 0 11 -4 11
-10 0 -5 16 -12 35 -16 19 -3 32 -10 30 -15 -3 -4 9 -11 27 -14 24 -5 37 -15
49 -38 9 -18 25 -33 37 -35 12 -2 22 -10 22 -17 0 -8 15 -17 35 -21 19 -3 35
-10 35 -15 0 -5 7 -9 15 -9 8 0 15 -7 15 -15 0 -8 9 -15 20 -15 11 0 20 -4 20
-10 0 -5 9 -10 20 -10 12 0 30 -9 42 -20 12 -11 28 -20 35 -20 7 0 13 -7 13
-15 0 -8 6 -15 14 -15 8 0 16 -7 20 -15 3 -8 12 -15 21 -15 8 0 15 -6 15 -14
0 -10 13 -16 38 -18 25 -2 37 -8 37 -18 0 -8 10 -16 23 -18 12 -2 22 -8 22
-13 0 -5 7 -9 15 -9 8 0 15 -5 15 -11 0 -5 -5 -7 -12 -3 -7 4 -8 3 -4 -4 4 -7
16 -12 27 -12 10 0 19 -4 19 -10 0 -5 18 -13 39 -16 28 -4 38 -10 34 -20 -4
-10 3 -14 25 -14 22 0 31 -6 35 -21 3 -12 10 -18 16 -15 5 3 16 -1 24 -9 9 -8
20 -15 25 -15 5 0 12 -10 15 -21 4 -16 11 -20 24 -15 9 4 14 4 10 0 -3 -4 3
-15 15 -25 20 -18 38 -23 66 -20 8 1 16 -7 19 -18 3 -12 14 -21 24 -21 11 0
19 -4 19 -10 0 -5 11 -12 25 -16 13 -3 27 -15 30 -25 4 -12 16 -19 31 -19 13
0 23 -5 22 -12 -2 -7 15 -17 37 -22 41 -11 69 -29 58 -40 -5 -4 38 -26 53 -26
2 0 4 871 4 1935 0 1283 -3 1935 -10 1935 -5 0 -10 6 -10 14 0 8 -11 17 -25
20 -14 4 -25 11 -25 16 0 6 -11 10 -25 10 -14 0 -25 5 -25 10 0 6 -6 10 -14
10 -8 0 -16 7 -20 15 -3 8 -15 15 -26 15 -11 0 -23 6 -26 14 -3 8 -16 17 -30
20 -13 4 -24 13 -24 21 0 8 -9 15 -20 15 -11 0 -23 7 -26 15 -4 8 -18 15 -33
15 -34 0 -47 10 -54 41 -5 21 -15 28 -41 33 -19 4 -39 13 -46 21 -7 8 -19 15
-26 15 -8 0 -14 7 -14 15 0 8 -8 15 -19 15 -10 0 -24 7 -31 15 -7 8 -21 15
-31 15 -11 0 -19 5 -19 10 0 6 -13 10 -30 10 -23 0 -30 4 -30 20 0 11 -7 20
-15 20 -8 0 -15 7 -15 15 0 8 -9 15 -20 15 -11 0 -20 7 -20 15 0 8 -9 15 -20
15 -11 0 -20 5 -20 10 0 6 -9 10 -21 10 -12 0 -23 8 -26 19 -3 11 -17 21 -34
25 -17 3 -29 12 -29 21 0 8 -7 15 -15 15 -8 0 -15 5 -15 10 0 6 -18 10 -39 10
-33 0 -40 4 -45 25 -4 14 -13 25 -21 25 -8 0 -15 5 -15 10 0 6 -7 10 -15 10
-8 0 -15 4 -15 10 0 5 -16 12 -35 16 -19 3 -35 10 -35 15 0 5 -9 9 -20 9 -11
0 -24 8 -27 18 -10 24 -29 42 -46 42 -9 0 -17 5 -19 11 -3 9 -21 15 -50 18 -5
1 -8 10 -8 21 0 14 -9 21 -35 26 -19 3 -38 10 -41 15 -3 5 -14 9 -25 9 -10 0
-19 5 -19 10 0 6 -8 10 -19 10 -11 0 -18 7 -17 17 0 10 -10 19 -26 24 -15 4
-35 14 -44 23 -8 9 -24 16 -35 16 -12 0 -19 7 -19 19 0 14 -10 21 -36 26 -24
4 -38 13 -41 26 -3 12 -14 19 -29 19 -15 0 -24 6 -24 15 0 8 -9 15 -20 15 -11
0 -20 4 -20 9 0 5 -18 12 -40 16 -25 4 -40 12 -40 21 0 8 -4 14 -10 14 -5 0
-10 7 -10 15 0 8 -6 15 -14 15 -7 0 -19 7 -26 15 -7 8 -28 15 -46 15 -27 0
-34 4 -34 19 0 12 -9 21 -25 25 -14 4 -25 11 -25 16 0 6 -9 10 -19 10 -11 0
-21 3 -23 8 -5 11 -64 42 -82 42 -9 0 -16 7 -16 16 0 21 -25 44 -58 54 -15 4
-26 12 -24 19 1 6 -7 11 -18 11 -11 0 -20 7 -20 15 0 8 -8 15 -17 15 -21 1
-63 33 -63 49 0 6 -13 11 -30 11 -18 0 -30 5 -30 13 0 8 -18 20 -40 27 -27 9
-40 19 -40 31 0 13 -11 20 -37 25 -21 4 -44 13 -51 21 -7 7 -22 13 -33 13 -11
0 -19 7 -19 16 0 25 -22 41 -87 60 -44 13 -59 22 -55 32 6 17 -15 32 -45 32
-13 0 -24 8 -28 20 -4 13 -15 20 -31 20 -14 0 -24 6 -24 14 0 8 -13 17 -29 21
-16 3 -35 13 -42 21 -6 8 -22 14 -35 14 -14 0 -25 8 -29 20 -3 11 -15 20 -26
20 -10 0 -19 5 -19 10 0 6 -7 10 -15 10 -8 0 -15 7 -15 15 0 9 -9 15 -25 15
-14 0 -25 5 -25 10 0 6 -11 10 -25 10 -16 0 -25 6 -25 16 0 9 -9 18 -20 21
-11 3 -20 12 -20 19 0 8 -10 14 -24 14 -13 0 -26 7 -30 15 -3 8 -12 15 -21 15
-8 0 -15 7 -15 15 0 10 -10 15 -30 15 -20 0 -30 5 -30 15 0 8 -7 15 -15 15 -8
0 -15 9 -15 20 0 15 -7 20 -25 20 -14 0 -25 5 -25 10 0 6 -11 10 -25 10 -14 0
-25 5 -25 10 0 6 -7 10 -16 10 -9 0 -18 9 -21 20 -3 11 -12 20 -19 20 -8 0
-14 4 -14 10 0 5 -20 15 -45 21 -25 6 -45 15 -45 20 0 5 -9 9 -20 9 -13 0 -20
7 -20 20 0 13 -9 22 -27 26 -15 4 -34 13 -41 21 -7 7 -22 13 -32 13 -10 0 -22
9 -25 20 -3 11 -15 20 -26 20 -10 0 -19 4 -19 9 0 5 -9 13 -20 16 -11 3 -20
13 -20 21 0 8 -9 14 -20 14 -11 0 -20 5 -20 10 0 6 -9 10 -21 10 -11 0 -18 4
-15 9 3 5 -8 11 -24 15 -18 3 -30 12 -30 21 0 8 -7 15 -15 15 -8 0 -15 4 -15
10 0 5 -18 14 -40 20 -22 6 -38 15 -35 20 4 6 -5 10 -19 10 -16 0 -26 6 -26
15 0 8 -9 15 -19 15 -11 0 -23 9 -26 21 -5 15 -13 19 -27 16 -11 -3 -21 0 -25
9 -3 8 -18 14 -34 14 -19 0 -29 5 -29 15 0 8 -4 15 -10 15 -5 0 -10 7 -10 15
0 8 -9 15 -20 15 -11 0 -20 7 -20 15 0 9 -9 15 -22 15 -13 0 -33 3 -45 6 l-23
6 0 -1941z m3720 -4265 c0 -3 -4 -8 -10 -11 -5 -3 -10 -1 -10 4 0 6 5 11 10
11 6 0 10 -2 10 -4z"/>
<path d="M4605 11739 c-49 -4 -91 -12 -93 -18 -2 -6 -17 -11 -33 -11 -18 0
-29 -5 -29 -14 0 -8 -16 -16 -42 -19 -24 -3 -44 -11 -46 -16 -2 -6 -12 -11
-23 -11 -10 0 -19 -4 -19 -10 0 -5 -7 -10 -15 -10 -8 0 -15 -6 -15 -14 0 -8
-16 -16 -39 -20 -21 -3 -41 -13 -45 -21 -3 -8 -12 -15 -21 -15 -8 0 -15 -7
-15 -15 0 -8 -6 -15 -13 -15 -7 0 -20 -9 -30 -20 -9 -11 -26 -20 -37 -20 -11
0 -20 -7 -20 -15 0 -19 -31 -55 -46 -55 -7 0 -15 -13 -19 -30 -4 -17 -15 -32
-28 -36 -31 -10 -47 -29 -47 -58 0 -14 -4 -26 -10 -26 -5 0 -10 -7 -10 -15 0
-8 -4 -15 -9 -15 -5 0 -12 -13 -16 -30 -4 -16 -10 -30 -15 -30 -5 0 -12 -20
-16 -45 -3 -25 -12 -45 -18 -45 -7 0 -18 -28 -25 -65 -9 -43 -18 -65 -27 -65
-10 0 -14 -12 -14 -40 0 -22 -4 -40 -10 -40 -5 0 -10 -16 -10 -35 0 -23 -5
-35 -14 -35 -13 0 -26 -96 -26 -197 0 -36 -3 -43 -20 -43 -20 0 -20 -7 -20
-550 0 -531 1 -550 19 -550 16 0 19 -12 26 -110 5 -85 10 -110 21 -110 9 0 14
-11 14 -35 0 -19 5 -35 10 -35 6 0 10 -18 10 -40 0 -29 4 -40 15 -40 8 0 15
-8 15 -17 0 -39 25 -123 37 -123 7 0 15 -20 19 -50 4 -32 11 -50 20 -50 8 0
14 -9 14 -20 0 -11 5 -20 10 -20 6 0 10 -13 10 -30 0 -16 5 -30 10 -30 6 0 10
-11 10 -25 0 -20 5 -25 25 -25 14 0 25 -4 25 -10 0 -15 33 -50 47 -50 7 0 13
-8 13 -19 0 -10 12 -27 26 -37 37 -27 74 -63 74 -74 0 -4 14 -11 30 -15 24 -5
32 -14 37 -35 5 -26 12 -30 59 -40 30 -6 54 -16 54 -21 0 -5 9 -9 20 -9 11 0
20 -6 20 -14 0 -9 17 -16 45 -20 25 -4 45 -11 45 -16 0 -5 29 -12 65 -15 45
-5 65 -12 65 -21 0 -11 16 -14 65 -14 37 0 65 -4 65 -10 0 -6 58 -10 155 -10
97 0 155 4 155 10 0 6 27 10 60 10 45 0 60 4 60 14 0 10 20 16 70 21 39 4 70
10 70 15 0 4 18 10 40 14 22 3 40 11 40 17 0 20 26 36 78 48 40 10 52 17 52
32 0 12 7 19 20 19 11 0 20 4 20 10 0 5 11 12 25 16 14 3 25 10 25 15 0 5 6 9
14 9 8 0 18 9 21 20 3 11 12 20 20 20 7 0 15 9 18 20 3 11 12 20 21 20 10 0
16 8 16 21 0 13 8 23 20 26 11 3 23 16 26 29 3 13 12 24 20 24 8 0 21 24 31
60 10 33 23 60 29 60 13 0 24 32 24 68 0 12 5 22 10 22 6 0 10 9 10 20 0 11 7
20 15 20 9 0 15 9 15 24 0 13 6 26 13 28 9 4 13 120 15 526 l3 522 -551 0
-550 0 0 -185 0 -185 365 0 365 0 0 -215 c0 -137 -4 -215 -10 -215 -5 0 -10
-19 -10 -42 0 -69 -11 -118 -26 -118 -8 0 -14 -11 -14 -25 0 -14 -4 -25 -10
-25 -5 0 -12 -12 -16 -27 -12 -55 -16 -63 -30 -63 -8 0 -14 -9 -14 -20 0 -13
-7 -20 -19 -20 -13 0 -21 -9 -26 -30 -4 -16 -12 -30 -20 -30 -7 0 -15 -9 -18
-20 -3 -12 -14 -20 -25 -20 -15 0 -22 -9 -27 -30 -6 -27 -10 -30 -46 -30 -28
0 -39 -4 -39 -15 0 -9 -9 -15 -25 -15 -14 0 -25 -4 -25 -10 0 -6 -30 -10 -70
-10 -56 0 -70 -3 -70 -15 0 -13 -23 -15 -150 -15 -127 0 -150 2 -150 15 0 12
-15 15 -75 15 -43 0 -75 4 -75 10 0 6 -9 10 -20 10 -11 0 -20 7 -20 15 0 10
-10 15 -30 15 -20 0 -30 5 -30 15 0 8 -7 15 -15 15 -8 0 -15 7 -15 15 0 9 -12
18 -30 22 -16 3 -30 12 -30 19 0 8 -9 14 -19 14 -13 0 -21 9 -26 30 -4 17 -13
30 -21 30 -8 0 -14 9 -14 20 0 11 -5 20 -11 20 -16 0 -39 27 -39 46 0 9 -7 22
-16 28 -8 7 -18 31 -21 54 -3 23 -9 42 -13 42 -4 0 -11 20 -14 45 -4 27 -12
45 -20 45 -13 0 -26 68 -26 138 0 17 -4 32 -10 32 -6 0 -10 32 -10 75 0 43 -4
75 -10 75 -7 0 -10 167 -10 480 0 313 3 480 10 480 6 0 10 33 10 80 0 44 4 80
9 80 5 0 12 36 16 80 5 55 11 80 20 80 8 0 15 21 20 55 3 30 10 55 14 55 4 0
12 20 19 45 7 25 16 45 22 45 5 0 10 9 10 20 0 11 5 20 10 20 6 0 10 7 10 15
0 8 5 15 11 15 15 0 33 21 50 58 7 17 19 32 24 32 13 0 45 36 45 50 0 6 14 10
30 10 20 0 30 5 30 15 0 9 9 15 25 15 18 0 25 5 25 20 0 16 7 20 30 20 17 0
30 5 30 10 0 6 15 10 34 10 19 0 36 6 39 13 3 9 58 12 232 12 174 0 229 -3
233 -12 2 -7 12 -13 23 -13 10 0 19 -4 19 -10 0 -5 16 -10 35 -10 28 0 35 -4
35 -20 0 -11 7 -20 15 -20 8 0 15 -7 15 -15 0 -9 9 -15 24 -15 17 0 26 -7 30
-24 4 -15 15 -25 33 -29 28 -6 53 -43 53 -79 0 -11 7 -18 20 -18 15 0 20 -7
20 -25 0 -15 6 -25 15 -25 8 0 19 -17 26 -40 7 -22 16 -40 21 -40 4 0 8 -16 8
-35 0 -23 5 -35 14 -35 14 0 26 -60 26 -131 0 -22 5 -39 10 -39 6 0 10 -16 10
-35 l0 -35 186 0 187 0 -5 167 c-4 112 -9 168 -17 171 -6 2 -11 19 -11 38 0
24 -5 34 -15 34 -8 0 -15 7 -15 15 0 8 -4 15 -9 15 -5 0 -11 23 -15 50 -5 34
-11 50 -21 50 -8 0 -15 7 -15 16 0 37 -32 124 -46 124 -8 0 -17 13 -20 30 -4
17 -13 30 -20 30 -8 0 -14 5 -14 10 0 6 -11 15 -25 20 -19 7 -25 17 -25 40 0
20 -5 30 -15 30 -8 0 -19 9 -25 20 -6 12 -21 20 -35 20 -16 0 -25 6 -25 15 0
9 -12 18 -30 22 -16 3 -30 9 -30 14 0 4 -9 11 -20 14 -11 3 -20 13 -20 21 0 8
-9 14 -20 14 -11 0 -20 5 -20 10 0 6 -9 10 -20 10 -11 0 -20 4 -20 10 0 5 -18
13 -40 16 -24 4 -40 12 -40 20 0 8 -10 14 -25 14 -14 0 -25 4 -25 8 0 25 -428
40 -635 21z"/>
<path d="M7755 11737 c-75 -10 -105 -23 -105 -45 0 -5 -18 -12 -40 -16 -22 -3
-40 -11 -40 -16 0 -6 -9 -10 -19 -10 -12 0 -23 -9 -27 -22 -8 -26 -22 -38 -46
-38 -19 0 -58 -33 -58 -49 0 -5 -9 -11 -19 -14 -12 -3 -22 -18 -26 -38 -4 -19
-10 -36 -14 -39 -13 -11 -31 -51 -31 -70 0 -11 -7 -20 -15 -20 -9 0 -15 -9
-15 -25 0 -14 -4 -25 -10 -25 -5 0 -10 -15 -10 -34 0 -19 -6 -36 -12 -39 -18
-5 -17 -389 0 -395 7 -2 12 -15 12 -28 0 -13 5 -24 10 -24 6 0 10 -16 10 -35
0 -24 5 -35 15 -35 8 0 15 -9 15 -20 0 -19 20 -71 31 -80 3 -3 12 -33 19 -67
7 -35 17 -63 22 -63 14 0 35 -24 40 -46 2 -11 13 -20 26 -22 14 -2 22 -10 22
-23 0 -10 9 -27 20 -36 11 -10 20 -25 20 -35 0 -10 5 -18 11 -18 19 0 38 -33
39 -63 0 -29 -19 -57 -39 -57 -6 0 -11 -7 -11 -15 0 -8 -9 -15 -20 -15 -11 0
-20 -7 -20 -15 0 -8 -8 -15 -17 -15 -35 0 -83 -24 -83 -42 0 -10 -4 -18 -10
-18 -15 0 -50 -42 -50 -62 0 -11 -7 -18 -20 -18 -12 0 -33 -11 -48 -25 -15
-14 -32 -25 -39 -25 -7 0 -13 -9 -13 -21 0 -12 -8 -23 -19 -26 -12 -3 -21 -17
-26 -39 -4 -25 -11 -34 -26 -34 -14 0 -25 -10 -32 -30 -6 -16 -17 -30 -24 -30
-9 0 -13 -18 -13 -60 0 -46 -3 -60 -15 -60 -10 0 -16 -16 -21 -50 -4 -27 -10
-50 -15 -50 -5 0 -9 -16 -9 -35 0 -24 -5 -35 -15 -35 -8 0 -15 -9 -15 -20 0
-11 -6 -20 -14 -20 -10 0 -15 -28 -20 -113 -9 -148 2 -307 20 -307 10 0 14
-14 14 -45 0 -33 4 -45 15 -45 8 0 15 -7 15 -15 0 -8 4 -15 9 -15 5 0 11 -22
15 -50 5 -34 11 -50 21 -50 12 0 15 -14 15 -64 0 -54 3 -64 19 -69 11 -2 21
-15 23 -28 2 -14 11 -25 23 -28 11 -2 24 -9 28 -17 4 -8 14 -14 22 -14 7 0 17
-9 20 -20 3 -11 13 -20 21 -20 8 0 14 -5 14 -10 0 -6 8 -14 18 -17 25 -10 42
-29 42 -47 0 -9 6 -16 13 -16 18 0 67 -24 67 -32 0 -5 14 -8 30 -8 19 0 30 -5
30 -14 0 -8 16 -16 42 -20 23 -4 45 -11 48 -17 4 -5 36 -12 73 -16 47 -4 67
-10 67 -19 0 -11 40 -14 210 -14 171 0 210 3 210 14 0 9 21 15 70 20 39 4 70
11 70 16 0 4 27 11 60 15 33 4 60 11 60 17 0 20 28 36 83 48 42 8 57 16 57 29
0 9 10 23 21 31 12 8 27 21 35 28 7 6 16 12 21 12 5 0 15 9 23 20 8 11 22 20
31 20 22 0 69 42 69 63 0 9 7 17 15 17 9 0 18 7 21 15 4 9 19 15 35 15 26 0
29 -3 29 -34 0 -26 5 -36 20 -41 11 -3 20 -13 20 -21 0 -8 4 -14 9 -14 5 0 14
-13 21 -30 7 -16 16 -30 21 -30 5 0 9 -7 9 -15 0 -8 5 -15 10 -15 6 0 10 -9
10 -19 0 -12 9 -21 25 -25 14 -4 25 -13 25 -21 0 -8 4 -15 9 -15 5 0 11 -9 14
-20 5 -19 14 -20 231 -20 210 0 225 1 219 18 -10 24 -26 39 -49 44 -14 2 -20
13 -22 41 -2 24 -8 37 -18 37 -8 0 -20 11 -26 25 -6 14 -15 25 -20 25 -4 0 -8
6 -8 13 0 7 -11 21 -25 31 -14 10 -25 27 -25 37 0 12 -7 19 -19 19 -13 0 -21
9 -26 30 -4 17 -13 30 -22 30 -17 0 -43 24 -43 39 0 6 -6 11 -14 11 -8 0 -17
14 -21 31 -4 19 -15 33 -26 36 -10 3 -19 12 -19 19 0 8 -4 14 -10 14 -5 0 -10
14 -10 30 0 23 -5 30 -19 30 -11 0 -23 9 -26 20 -3 11 -11 20 -16 20 -5 0 -9
11 -9 25 0 14 4 25 9 25 5 0 15 23 22 50 7 28 19 50 26 50 7 0 13 10 13 22 0
41 24 128 36 128 11 0 16 25 31 143 3 30 10 47 19 47 10 0 14 14 14 45 0 25 5
45 10 45 6 0 10 28 10 65 0 48 4 65 13 65 15 0 27 134 27 292 l0 78 -164 0
-163 0 -7 -172 c-4 -95 -12 -174 -17 -176 -5 -2 -9 -30 -9 -63 0 -33 -4 -59
-10 -59 -5 0 -10 -22 -10 -50 0 -27 -4 -50 -9 -50 -4 0 -11 -39 -15 -87 -3
-48 -7 -88 -9 -89 -1 -1 -13 -4 -27 -6 -22 -3 -25 1 -28 30 -2 17 -9 32 -15
32 -17 0 -67 45 -67 59 0 19 -47 61 -70 61 -16 0 -20 6 -20 35 0 19 -4 35 -10
35 -5 0 -10 5 -10 11 0 6 -7 17 -15 25 -8 9 -15 24 -15 35 0 11 -6 22 -14 25
-8 3 -17 16 -20 30 -4 14 -14 24 -24 24 -11 0 -23 13 -31 35 -7 19 -18 35 -26
35 -7 0 -18 14 -24 30 -5 17 -15 30 -20 30 -6 0 -11 6 -11 13 0 7 -9 19 -20
27 -11 8 -20 20 -20 27 0 7 -4 13 -10 13 -5 0 -10 8 -10 19 0 10 -9 21 -19 24
-13 3 -21 17 -26 46 -5 32 -11 41 -27 41 -11 0 -22 8 -25 20 -3 11 -9 20 -13
20 -5 0 -10 10 -12 22 -2 14 -12 24 -28 28 -19 4 -26 13 -28 38 -3 28 0 32 21
32 14 0 27 7 31 15 3 8 12 15 21 15 8 0 15 7 15 15 0 8 8 15 18 15 9 0 23 13
30 30 10 21 21 30 38 30 17 0 24 6 24 20 0 15 8 22 29 26 20 4 33 15 41 34 6
16 20 30 31 33 11 3 19 14 19 26 0 14 6 21 20 21 29 0 57 33 70 79 6 23 14 41
19 41 4 0 13 18 20 40 7 23 18 40 26 40 9 0 15 10 15 25 0 14 5 25 10 25 6 0
10 7 10 15 0 8 5 15 10 15 6 0 10 16 10 35 0 19 5 35 10 35 6 0 10 20 10 45 0
25 5 45 10 45 6 0 10 52 10 135 0 83 -4 135 -10 135 -5 0 -10 14 -10 30 0 17
-4 30 -10 30 -5 0 -10 16 -10 35 0 19 -4 35 -10 35 -5 0 -10 11 -10 25 0 14
-4 25 -10 25 -5 0 -10 11 -10 25 0 14 -6 25 -13 25 -16 0 -37 41 -37 70 0 11
-4 20 -8 20 -5 0 -15 12 -23 27 -19 37 -46 63 -65 63 -9 0 -18 9 -21 20 -3 11
-12 20 -20 20 -7 0 -25 11 -39 25 -14 14 -34 25 -44 25 -11 0 -20 7 -20 15 0
10 -10 15 -29 15 -16 0 -31 4 -33 9 -9 27 -312 38 -473 18z m383 -335 c2 -7
10 -12 17 -12 7 0 15 -9 18 -20 3 -13 14 -20 30 -20 22 0 26 -6 32 -40 4 -25
12 -40 21 -40 8 0 14 -7 14 -15 0 -8 5 -15 10 -15 6 0 10 -7 10 -15 0 -8 5
-15 10 -15 6 0 10 -13 10 -30 0 -16 5 -30 10 -30 6 0 10 -50 10 -130 0 -80 -4
-130 -10 -130 -5 0 -10 -13 -10 -28 0 -16 -8 -34 -20 -42 -11 -8 -20 -26 -20
-41 0 -18 -6 -28 -19 -32 -14 -3 -21 -15 -23 -43 -2 -32 -7 -40 -27 -42 -13
-2 -26 -12 -28 -23 -3 -10 -12 -19 -19 -19 -8 0 -14 -7 -14 -15 0 -8 -9 -15
-19 -15 -12 0 -25 -12 -33 -30 -7 -17 -21 -30 -30 -30 -10 0 -18 -6 -18 -13 0
-18 -37 -47 -60 -47 -13 0 -20 -7 -20 -20 0 -15 -7 -20 -25 -20 -13 0 -29 -8
-34 -17 -10 -17 -10 -17 -11 0 0 9 -7 17 -15 17 -8 0 -15 9 -15 20 0 11 -7 20
-15 20 -9 0 -18 12 -21 30 -4 19 -13 30 -23 30 -17 0 -41 42 -41 72 0 12 -8
18 -24 18 -22 0 -26 6 -31 44 -6 36 -12 46 -31 50 -21 6 -24 12 -24 51 0 33
-4 45 -15 45 -8 0 -15 7 -15 15 0 8 -4 15 -10 15 -5 0 -10 20 -10 45 0 25 -4
45 -10 45 -6 0 -10 42 -10 105 0 63 4 105 10 105 6 0 10 11 10 25 0 14 5 25
10 25 6 0 10 11 10 25 0 16 6 25 15 25 10 0 15 11 15 35 0 30 3 35 23 35 16 0
28 9 35 25 8 17 20 25 36 25 17 0 26 7 30 24 8 31 32 35 220 32 97 -2 141 -6
144 -14z m-307 -1455 c9 -7 20 -27 23 -45 4 -17 14 -32 21 -32 7 0 18 -13 24
-30 5 -16 15 -30 20 -30 6 0 11 -7 11 -15 0 -8 7 -15 15 -15 8 0 15 -4 15 -10
0 -5 11 -20 25 -34 14 -14 25 -30 25 -36 0 -5 4 -10 9 -10 5 0 14 -13 20 -30
5 -16 16 -30 23 -30 8 0 20 -20 27 -45 11 -37 17 -45 37 -45 21 0 24 -5 24
-35 0 -24 5 -35 15 -35 8 0 15 -4 15 -10 0 -5 9 -10 19 -10 21 0 31 -19 31
-56 0 -19 8 -28 30 -35 24 -9 30 -17 30 -40 0 -16 4 -29 8 -29 18 0 60 -46 66
-71 3 -15 15 -29 25 -32 13 -3 22 -17 26 -41 6 -27 12 -36 27 -36 11 0 22 -8
25 -20 3 -11 9 -20 13 -20 5 0 12 -9 15 -20 3 -11 13 -27 22 -35 8 -9 17 -33
20 -55 5 -32 2 -40 -10 -40 -9 0 -18 -12 -22 -30 -4 -16 -13 -30 -21 -30 -8 0
-14 -7 -14 -15 0 -9 -10 -15 -26 -15 -17 0 -28 -6 -31 -20 -3 -11 -14 -20 -24
-20 -11 0 -19 -7 -19 -15 0 -8 -9 -15 -20 -15 -11 0 -20 -7 -20 -15 0 -8 -9
-15 -20 -15 -11 0 -20 -4 -20 -10 0 -5 -25 -10 -55 -10 -42 0 -55 -3 -55 -15
0 -11 -11 -15 -39 -15 -22 0 -41 -5 -43 -12 -6 -18 -390 -18 -396 0 -2 7 -15
12 -28 12 -15 0 -24 6 -24 15 0 11 -11 15 -40 15 -22 0 -40 5 -40 10 0 6 -9
10 -20 10 -11 0 -20 7 -20 15 0 8 -9 15 -20 15 -11 0 -20 7 -20 15 0 8 -9 15
-20 15 -11 0 -20 7 -20 15 0 9 -7 18 -15 21 -8 4 -15 12 -15 20 0 8 -9 14 -20
14 -16 0 -20 7 -20 30 0 19 -5 30 -14 30 -9 0 -18 22 -26 65 -8 43 -17 65 -26
65 -11 0 -14 16 -14 65 0 37 -4 65 -10 65 -5 0 -10 25 -10 55 0 30 5 55 10 55
6 0 10 28 10 65 0 49 3 65 14 65 9 0 17 22 24 70 6 38 17 77 26 86 9 8 16 25
16 36 0 11 8 22 20 25 11 3 20 12 20 19 0 8 4 14 10 14 5 0 12 11 16 25 4 16
13 25 25 25 10 0 19 4 19 8 0 14 45 62 58 62 14 0 52 36 52 50 0 6 11 10 25
10 18 0 25 5 25 19 0 14 8 21 28 23 19 2 28 9 30 26 2 16 10 22 27 22 13 0 27
5 30 10 8 14 47 12 66 -3z"/>
<path d="M1230 10020 l0 -1660 205 0 205 0 0 725 0 725 655 0 655 0 0 175 0
175 -655 0 -655 0 0 575 0 575 715 0 715 0 0 185 0 185 -920 0 -920 0 0 -1660z"/>
</g>
</svg>
